PathFileType	4	(X/Y/Z)	C:/Users/opensim2020/Desktop/walking_exp_matlab/subject01_walking09_straight_04.trc																																																																																																																															
DataRate	CameraRate	NumFrames	NumMarkers	Units	OrigDataRate	OrigDataStartFrame	OrigNumFrames																																																																																																																											
100	100	4	43	mm	100	4106	292																																																																																																																											
Frame#	Time	LFHD			RFHD			LBHD			RBHD			C7			T10			CLAV			STRN			RBAK			LSHO			LUPA			LELB			LFRM			LWRA			LWRB			LFIN			RSHO			RUPA			RELB			RFRM			RWRA			RWRB			RFIN			LASI			RASI			LPSI			RPSI			LTHI			LKNE			LTIB			LANK			LHEE			LTOE			RTHI			RKNE			RTIB			RANK			RHEE			RTOE			*39			*40			*41			*42		
		X1	Y1	Z1	X2	Y2	Z2	X3	Y3	Z3	X4	Y4	Z4	X5	Y5	Z5	X6	Y6	Z6	X7	Y7	Z7	X8	Y8	Z8	X9	Y9	Z9	X10	Y10	Z10	X11	Y11	Z11	X12	Y12	Z12	X13	Y13	Z13	X14	Y14	Z14	X15	Y15	Z15	X16	Y16	Z16	X17	Y17	Z17	X18	Y18	Z18	X19	Y19	Z19	X20	Y20	Z20	X21	Y21	Z21	X22	Y22	Z22	X23	Y23	Z23	X24	Y24	Z24	X25	Y25	Z25	X26	Y26	Z26	X27	Y27	Z27	X28	Y28	Z28	X29	Y29	Z29	X30	Y30	Z30	X31	Y31	Z31	X32	Y32	Z32	X33	Y33	Z33	X34	Y34	Z34	X35	Y35	Z35	X36	Y36	Z36	X37	Y37	Z37	X38	Y38	Z38	X39	Y39	Z39	X40	Y40	Z40	X41	Y41	Z41	X42	Y42	Z42	X43	Y43	Z43
																																																																																																																																		
220	2.19	313.70645	1663.4646	-1493.16785	333.99762	1663.50464	-1381.00049	193.60251	1632.15552	-1479.77783	211.79158	1631.75085	-1359.83728	144.94318	1426.25281	-1439.79578	121.64959	1130.55359	-1430.74463	288.93951	1361.79578	-1445.79443	337.10547	1210.06775	-1458.19409	101.631	1226.43372	-1363.3501	220.21617	1392.7688	-1603.31262	210.88557	1212.15723	-1694.79248	227.1216	1059.13501	-1705.81531	308.05005	974.89716	-1727.12195	426.80859	905.81689	-1701.26672	381.32556	877.64282	-1729.25903	456.31406	840.28992	-1739.05225	232.15108	1386.22437	-1290.64355	168.92818	1185.16284	-1195.62024	166.22319	1060.61975	-1197.41931	188.27484	941.56573	-1169.63623	261.59857	820.29614	-1193.25818	221.05029	823.40552	-1152.34241	251.20869	741.8855	-1158.16821	286.51935	925.67633	-1555.297	316.10175	934.05475	-1341.71838	109.57545	941.58472	-1478.198	130.98375	946.06714	-1334.38818	218.84543	590.51587	-1601.9552	188.88152	458.14236	-1591.02246	49.6613	328.18524	-1590.71692	-85.51597	154.05421	-1536.3739	-130.46388	158.4005	-1478.37231	2.30811	33.76947	-1532.6272	314.75052	603.71082	-1281.6637	352.99066	451.57202	-1313.40674	326.58643	276.14615	-1306.47034	327.22711	71.8618	-1356.53113	278.7688	32.41402	-1405.42737	468.32794	37.65083	-1365.81677	324.84094	1698.89807	-1401.86609	-1973.12683	1023.59753	3101.8894	-2012.59058	1022.16211	3140.76025	NaN	NaN	NaN
221	2.2	320.48062	1664.11841	-1491.41345	340.65591	1664.00928	-1379.18909	200.43854	1632.56177	-1478.27515	218.45805	1632.00781	-1358.30005	152.06122	1426.61377	-1438.27234	128.82381	1130.99207	-1429.07886	296.10959	1362.31873	-1444.55542	344.19534	1210.51392	-1456.84351	108.84637	1227.02917	-1361.56616	227.27742	1393.22009	-1601.99243	217.42784	1212.55798	-1693.22559	232.61505	1059.52649	-1704.19849	312.44821	974.37323	-1725.53418	430.38947	903.8009	-1699.77905	384.50552	876.13831	-1727.76135	459.00177	837.78943	-1737.4718	239.14871	1387.05786	-1289.57922	176.82187	1185.75098	-1193.90747	174.20613	1061.09961	-1195.74402	196.98564	942.02185	-1168.16956	270.75174	821.18127	-1192.35864	230.30147	823.98474	-1151.27649	260.8175	742.56854	-1157.51721	293.60205	926.20929	-1553.57019	322.99817	934.29858	-1340.07971	116.4754	941.74408	-1476.77087	137.888	946.6936	-1333.05554	230.99084	590.38226	-1602.45862	202.8093	457.91183	-1592.29541	61.19268	331.25964	-1591.45862	-76.91203	159.65067	-1537.12268	-121.06474	166.16173	-1478.76306	3.84331	34.98861	-1531.95874	318.97046	603.80243	-1280.49194	355.64432	451.24472	-1312.18359	327.79025	275.91483	-1305.82178	327.4595	71.7282	-1356.48462	278.90176	32.52758	-1405.38708	468.66739	37.27979	-1365.78821	331.453	1699.38525	-1400.03113	-1973.14722	1023.56403	3101.88843	-2012.5127	1021.96265	3140.55957	NaN	NaN	NaN
222	2.21	327.28137	1664.63989	-1489.75818	347.34067	1664.47668	-1377.5127	207.31726	1632.8363	-1476.81604	225.13394	1632.15723	-1356.86609	159.00981	1427.04968	-1437.02197	135.83838	1131.36536	-1427.43909	303.13522	1362.7356	-1443.37024	351.2312	1210.89819	-1455.62488	115.87946	1227.52649	-1359.86633	234.12001	1393.57422	-1600.79675	223.72464	1212.79138	-1691.66809	238.05882	1059.82288	-1702.69092	316.77316	973.73022	-1723.97925	433.74026	901.58636	-1698.36389	387.50833	874.48877	-1726.34729	461.47501	835.07751	-1735.94556	246.36041	1387.59729	-1288.3175	184.71194	1186.23474	-1192.27563	182.28993	1061.48535	-1194.04248	205.77452	942.49677	-1166.71204	279.79358	821.94525	-1191.48792	239.84868	824.58722	-1149.91321	270.64679	743.22992	-1156.77283	300.45493	926.5022	-1552.01147	329.45309	934.47882	-1338.59326	123.13642	941.69843	-1475.48596	144.53011	947.09308	-1331.72156	243.11472	590.22015	-1602.98132	216.66728	457.65994	-1593.53418	73.28577	334.06097	-1592.04919	-67.85516	165.28238	-1537.74817	-111.56668	173.72946	-1479.44751	6.63312	36.38629	-1531.04285	322.96365	603.71735	-1279.34973	358.25415	450.8082	-1310.96484	328.75552	275.57193	-1305.08948	327.68222	71.62659	-1356.45227	278.8934	32.51651	-1405.33618	468.94922	36.94129	-1365.76294	338.01654	1699.8241	-1398.2749	-1973.06372	1023.61816	3101.85693	-2012.50061	1022.03351	3140.76367	NaN	NaN	NaN
223	2.22	334.10022	1665.11768	-1488.26367	353.97183	1664.84021	-1375.92957	214.11816	1633.04077	-1475.49084	231.82878	1632.33582	-1355.47217	165.95045	1427.38464	-1435.72729	142.74454	1131.71533	-1425.901	310.22464	1363.05078	-1442.24097	358.07806	1211.04138	-1454.41125	122.8904	1227.96765	-1358.15283	241.03732	1393.79407	-1599.56543	229.82275	1212.87219	-1690.12915	243.34961	1059.9707	-1701.15613	320.87622	972.95422	-1722.5144	436.9621	899.24249	-1697.02698	390.33414	872.73199	-1724.90747	463.76041	832.28046	-1734.49316	253.7227	1387.99683	-1287.07666	192.69556	1186.54724	-1190.54773	190.40965	1061.75793	-1192.32043	214.61504	942.83368	-1165.16321	289.18481	822.76831	-1190.46045	249.32863	825.2113	-1148.70679	280.53726	743.84192	-1155.81287	307.15738	926.61481	-1550.51221	335.97922	934.47906	-1336.97754	129.61943	941.51044	-1474.30627	151.00577	947.34631	-1330.52893	255.07722	590.06494	-1603.50879	230.31781	457.414	-1594.70459	85.7754	336.64951	-1592.66699	-58.34634	171.15265	-1538.25098	-102.15043	180.92068	-1480.28198	11.53034	39.6235	-1530.73535	327.07553	603.72992	-1278.13977	361.01389	450.35468	-1309.81177	330.12881	275.45844	-1304.34436	327.93918	71.56944	-1356.49304	278.93463	32.59436	-1405.25732	469.29279	36.5752	-1365.73694	344.58359	1700.16504	-1396.68054	-1973.09326	1023.79773	3101.9895	-2012.45557	1021.92499	3140.67676	NaN	NaN	NaN
